<?xml version="1.0" encoding="utf-8"?>
<!-- Generator: Adobe Illustrator 13.0.0, SVG Export Plug-In . SVG Version: 6.00 Build 14948)  -->
<!DOCTYPE svg PUBLIC "-//W3C//DTD SVG 1.1//EN" "http://www.w3.org/Graphics/SVG/1.1/DTD/svg11.dtd">
<svg version="1.1" id="Layer_1" xmlns="http://www.w3.org/2000/svg" xmlns:xlink="http://www.w3.org/1999/xlink" x="0px" y="0px"
	 width="118.754px" height="25.913px" viewBox="0 0 118.754 25.913" enable-background="new 0 0 118.754 25.913"
	 xml:space="preserve">
<g>
	<path fill="#2F4798" d="M79.485,15.849c0-3.953-6.308-3.791-6.308-6.537c0-0.907,0.923-1.346,2.108-1.346
		c1.917,0,3.154,1.21,3.154,1.21V6.814c0,0-1.137-0.582-2.969-0.582c-3.729,0-4.784,1.882-4.766,3.438
		c0,3.518,6.303,3.887,6.303,6.438c0,1.247-1.19,1.669-2.674,1.669c-1.986,0-4.009-1.557-4.009-1.557l0.405,2.556
		c0,0,1.617,0.75,3.501,0.75C77.575,19.526,79.485,18.149,79.485,15.849"/>
	<path fill="#2F4798" d="M95.817,17.28c-0.018,0.814,0.334,1.489,0.957,1.701l-0.003,0.221h-3.637l-0.007-0.221
		c0.674-0.244,0.99-0.828,0.983-1.704V8.452c0-0.854-0.242-1.416-0.961-1.73V6.508h3.094c0,0,0.105,0.451,0.394,0.818l6.398,8.269
		V8.53c0-1.043-0.295-1.521-0.893-1.812v-0.21h3.613v0.215c-0.65,0.27-0.984,0.818-0.971,1.709v11.254
		c-0.851-0.128-1.84-0.618-2.675-1.65l-6.294-8.148V17.28"/>
	<path fill="#2F4798" d="M118.754,12.702h-3.249v0.213c0.49,0.226,0.78,0.621,0.78,1.433v3.308c0,0-0.879,0.312-2.096,0.312
		c-3.411,0-5.301-2.451-5.301-5.161c0-2.717,2.038-4.738,5.026-4.738c2.017,0,3.35,1.178,3.35,1.178V6.732
		c0,0-1.553-0.354-2.994-0.354c-5.065,0-7.787,2.752-7.829,6.744c-0.034,3.353,2.064,6.487,7.668,6.479
		c2.237,0,4.564-0.532,4.564-0.532s-0.144-0.39-0.144-0.669v-4.732C118.531,13.009,118.754,12.702,118.754,12.702"/>
	<path fill="#2F4798" d="M88.008,6.508v0.193c0.388,0.174,0.755,0.555,0.749,1.668v7.047c0,1.189-1.102,2.193-2.558,2.336
		c-1.838,0.173-3.034-0.809-3.034-3.137V7.987c0-0.625,0.271-1.08,0.715-1.264V6.508h-3.719v0.215
		c0.484,0.195,0.744,0.747,0.744,1.354v6.916c0,2.992,1.821,4.533,4.71,4.478c1.162-0.024,2.277-0.464,3.125-1.216v0.947h3.073
		v-0.215c-0.561-0.242-0.821-0.66-0.821-1.629V8.463c-0.002-1.174,0.255-1.479,0.744-1.743V6.508H88.008"/>
	<path fill="#2F4798" d="M49.611,13.687c-0.001,0.408,0,3.509,0,3.509c0,1.143-0.186,1.457-0.723,1.783v0.223h3.732v-0.207
		c-0.47-0.35-0.758-0.728-0.744-1.688l0.001-3.631l4.661-7.168H52.83v0.215c0.734,0.361,0.711,1.127,0.363,1.697l-2.175,3.33
		l-2.686-4.444c-0.301-0.513-0.636-0.798-1.441-0.798h-2.397c0.764,0.316,1.433,1.053,1.871,1.832L49.611,13.687"/>
	<path fill="#2F4798" d="M40.742,13.141v4.166c0.014,1.02-0.239,1.475-0.801,1.672v0.223h3.826v-0.211
		c-0.397-0.199-0.786-0.461-0.786-1.742l0.001-8.81c0-1.075,0.232-1.455,0.779-1.721l0.003-0.21h-3.833V6.72
		c0.574,0.264,0.816,0.585,0.811,1.639v3.093h-6.275V8.359c-0.006-1.054,0.235-1.375,0.81-1.639V6.508h-3.835l0.003,0.21
		c0.547,0.266,0.78,0.646,0.78,1.721l0.003,8.806c0,1.28-0.39,1.543-0.789,1.742v0.215h3.83v-0.215
		c-0.564-0.199-0.817-0.654-0.802-1.676v-4.17H40.742"/>
	<path fill="#2F4798" d="M58.012,12.698c0,2.551,1.767,5.176,4.562,5.176c2.707,0,4.438-2.023,4.438-4.741
		c0-2.661-1.66-5.232-4.476-5.232C59.779,7.9,58.012,9.944,58.012,12.698 M69.421,12.764c0,3.928-3.188,6.786-6.941,6.786
		c-3.729,0-6.874-2.738-6.874-6.691c0-3.665,3.107-6.729,7.066-6.634C66.63,6.208,69.421,9.292,69.421,12.764z"/>
	<path fill="#2F4798" d="M12.959,0C5.804,0,0,5.801,0,12.956c0,5.336,3.22,9.916,7.828,11.902c-0.002-4.222,0-7.927,0-7.927
		c0-0.503-0.412-0.877-0.901-0.877c-1.263,0-3.668,0-4.265,0c-0.754,0-1.436-0.587-1.436-1.402c0,0,0-2.811-0.003-3.256h0.92v0.865
		c0,0.696,0.483,0.978,0.871,0.978h4.332c0.817,0,1.55,0.569,1.55,1.467l0.001,10.552c0.255,0.087,0.515,0.163,0.776,0.233
		C9.667,19.819,9.66,13.045,9.66,13.045c0-0.498-0.411-0.875-0.897-0.875c-1.267,0-3.671,0-4.267,0
		c-0.753,0-1.436-0.584-1.436-1.401c0,0,0-2.808,0-3.255h0.915v0.863c0,0.695,0.483,0.979,0.875,0.979l4.335-0.003
		c0.816,0,1.547,0.568,1.547,1.469l0.001,14.896c0.256,0.044,0.509,0.082,0.767,0.11c-0.003-5.705,0-16.664,0-16.664
		c0-0.5-0.415-0.877-0.898-0.877c-1.268,0-3.679,0-4.269,0c-0.756,0-1.439-0.584-1.439-1.398c0,0,0-2.811,0-3.256h0.917v0.863
		c0,0.696,0.485,0.978,0.874,0.978l4.338-0.001c0.81,0,1.545,0.568,1.545,1.469v18.959c0.127,0.006,0.259,0.012,0.391,0.012
		c0.129,0,0.255-0.006,0.384-0.012V6.942c0-0.9,0.735-1.469,1.547-1.469l4.337,0.001c0.39,0,0.874-0.281,0.874-0.978V3.633h0.914
		c0,0.445,0,3.256,0,3.256c0,0.814-0.684,1.398-1.435,1.398c-0.596,0-3.005,0-4.268,0c-0.486,0-0.904,0.377-0.904,0.877
		c0,0,0.006,10.959,0,16.666c0.265-0.03,0.512-0.068,0.77-0.111V10.823c0-0.9,0.729-1.469,1.547-1.469l4.334,0.003
		c0.39,0,0.875-0.284,0.875-0.979V7.514h0.915c0,0.447,0,3.255,0,3.255c0,0.817-0.68,1.401-1.439,1.401c-0.591,0-2.997,0-4.262,0
		c-0.491,0-0.904,0.377-0.904,0.875c0,0,0.008,6.775,0,12.447c0.262-0.068,0.513-0.146,0.769-0.232V14.706
		c0-0.897,0.73-1.467,1.547-1.467h4.334c0.392,0,0.877-0.281,0.877-0.978v-0.865h0.916c-0.003,0.445-0.003,3.256-0.003,3.256
		c0,0.815-0.681,1.402-1.436,1.402c-0.596,0-2.999,0-4.269,0c-0.485,0-0.898,0.374-0.898,0.877c0,0,0.004,3.705,0,7.929
		c4.61-1.984,7.831-6.566,7.831-11.904C25.912,5.801,20.111,0,12.959,0"/>
</g>
</svg>
